<mxfile host="app.diagrams.net" modified="2022-09-18T06:23:49.150Z" agent="5.0 (Windows NT 10.0; Win64; x64) AppleWebKit/537.36 (KHTML, like Gecko) Chrome/105.0.0.0 Safari/537.36" etag="_q3M956IgqR77TJbiz-6" version="20.3.2" type="github">
  <diagram id="WFYY1OQ387zo6ZjDod_X" name="Page-1">
    <mxGraphModel dx="1038" dy="588" grid="1" gridSize="10" guides="1" tooltips="1" connect="1" arrows="1" fold="1" page="1" pageScale="1" pageWidth="827" pageHeight="1169" math="0" shadow="0">
      <root>
        <mxCell id="0" />
        <mxCell id="1" parent="0" />
        <mxCell id="LeVzftDxpDQPPiAGFlVl-2" value="" style="whiteSpace=wrap;html=1;aspect=fixed;" vertex="1" parent="1">
          <mxGeometry x="20" y="10" width="480" height="480" as="geometry" />
        </mxCell>
        <UserObject label="Logo" link="test" id="LeVzftDxpDQPPiAGFlVl-3">
          <mxCell style="text;html=1;strokeColor=default;fillColor=none;align=center;verticalAlign=middle;whiteSpace=wrap;rounded=0;" vertex="1" parent="1">
            <mxGeometry x="30" y="20" width="60" height="30" as="geometry" />
          </mxCell>
        </UserObject>
      </root>
    </mxGraphModel>
  </diagram>
</mxfile>
